<?xml version="1.0" encoding="UTF-8"?>
<!-- Created with Inkscape (http://www.inkscape.org/) -->
<svg width="100" height="100" version="1.1" viewBox="0 0 26.458 26.458" xmlns="http://www.w3.org/2000/svg">
 <g transform="matrix(.20406 0 0 .18337 -7.9184 -11.092)" fill="#e51620">
  <path d="m158.48 61.988c-2.3371 2.0241-2.2473 1.8726-4.779 4.4946-4.0073 4.1503-8.041 8.7245-11.842 12.972-18.654 20.844-1.0322 1.2908-21.704 24.159-14.115 15.554-28.733 30.64-43.03 46.024-5.5457 5.9671-8.6933 9.483-14.055 15.41-6.4412 7.107-12.535 14.522-19.038 21.572-0.98566 1.0515-1.8916 2.1943-2.9784 3.147-6.2497 5.7395 1.8672 14.578 8.1169 8.8384 1.2987-1.2144 2.516-2.5082 3.683-3.8501 6.528-7.0796 12.656-14.515 19.116-21.657 5.2743-5.8305 8.4548-9.3826 13.904-15.246 14.349-15.439 29.02-30.58 43.185-46.191 20.268-22.423 3.5015-3.8156 21.726-24.184 4.1287-4.6144 7.2819-8.2027 11.386-12.491 2.0126-2.1032 1.8747-1.9323 3.6277-3.4858 6.7256-5.1736-0.59089-14.685-7.3165-9.5115z"/>
  <path d="m48.76 72.787c2.086 2.086 2.9881 2.9486 5.3714 5.7545 4.9385 5.8143 11.54 14.313 15.997 20.131 5.2217 6.8148 14.9 19.775 20.059 26.663 9.3792 12.829 19.316 25.278 28.178 38.482 1.8705 2.7867 7.0992 11.078 8.9883 14.06 4.1106 6.5487 8.326 13.058 13.103 19.147 2.086 2.6588 2.5678 3.1187 4.7033 5.484 5.699 6.2866 14.59-1.7731 8.8906-8.0596-6.38-7.0033-11.547-14.983-16.561-22.994-2.152-3.3963-7.1578-11.34-9.2801-14.499-8.9438-13.314-18.953-25.878-28.419-38.814-5.2168-6.9648-14.926-19.967-20.196-26.842-4.8133-6.2794-11.346-14.684-16.614-20.861-2.5368-2.9743-3.5349-3.9345-5.7373-6.1369-6-6-14.485 2.4853-8.4853 8.4853z"/>
 </g>
</svg>
